<svg width="54" height="40" viewBox="0 0 54 40" fill="none" xmlns="http://www.w3.org/2000/svg">
<mask id="mask0_882_1913" style="mask-type:alpha" maskUnits="userSpaceOnUse" x="0" y="0" width="54" height="40">
<rect width="54" height="40" fill="#D9D9D9"/>
</mask>
<g mask="url(#mask0_882_1913)">
<path d="M24.5075 34.6661C23.9254 34.0841 23.2259 33.7904 22.4089 33.7904C21.5918 33.7904 20.8923 34.0841 20.3102 34.6661C19.7282 35.2482 19.4398 35.9478 19.4398 36.7594C19.4398 37.5711 19.7282 38.3081 20.3102 38.8955C20.8923 39.4775 21.5918 39.7659 22.4089 39.7659C23.2259 39.7659 23.9254 39.4775 24.5075 38.8955C25.0896 38.3081 25.3779 37.5978 25.3779 36.7594C25.3779 35.9211 25.0896 35.2482 24.5075 34.6661ZM40.9282 34.6661C40.3461 34.0841 39.6359 33.7904 38.7975 33.7904C37.9591 33.7904 37.2809 34.0841 36.6989 34.6661C36.1168 35.2482 35.8284 35.9478 35.8284 36.7594C35.8284 37.5711 36.1168 38.3081 36.6989 38.8955C37.2809 39.4775 37.9805 39.7659 38.7975 39.7659C39.6145 39.7659 40.3461 39.4775 40.9282 38.8955C41.5102 38.3081 41.7986 37.5978 41.7986 36.7594C41.7986 35.9211 41.5102 35.2482 40.9282 34.6661ZM42.7278 15.9012C42.0069 15.9012 41.3874 16.4138 41.2486 17.1187L39.3956 26.6294C39.3262 27.0032 39.1553 27.2915 38.8883 27.5051C38.6213 27.7134 38.3009 27.8149 37.9271 27.8149H23.4609C23.0924 27.8149 22.7613 27.7134 22.4836 27.5051C22.206 27.2915 22.0297 27.0032 21.9603 26.6294L19.7228 15.9012L19.1461 12.9321H19.1301L18.7349 10.8335L17.9446 6.64155C17.8698 6.27308 17.6989 5.97938 17.4159 5.77112C17.1382 5.56286 16.8125 5.45605 16.4387 5.45605H10.5006C10.036 5.45605 9.66751 5.5949 9.4005 5.87258C9.1335 6.1556 9 6.51339 9 6.95661C9 7.39983 9.1335 7.76296 9.4005 8.04064C9.66751 8.31832 10.036 8.4625 10.5006 8.4625H15.2532L16.4387 14.7157V14.8545L18.9912 27.2221C19.1995 28.2688 19.7121 29.1339 20.5292 29.8067C21.3409 30.4849 22.2754 30.8213 23.322 30.8213H37.9271C39.0431 30.8213 40.0097 30.4849 40.8267 29.8067C41.6437 29.1339 42.1671 28.2688 42.402 27.2221L44.2123 17.6901C44.3885 16.7609 43.6783 15.9012 42.7278 15.9012Z" fill="white"/>
<path d="M30.3118 19.2279C30.4507 19.2973 30.6269 19.3347 30.8352 19.3347C31.0434 19.3347 31.2677 19.2973 31.4973 19.2279C31.5667 19.1585 31.6362 19.1104 31.7056 19.089C31.775 19.0677 31.8551 19.0196 31.9512 18.9502L39.4754 11.394C39.7797 11.0896 39.9293 10.7425 39.9293 10.3474C39.9293 9.95221 39.7797 9.59977 39.4754 9.30072C39.171 8.99634 38.8239 8.84682 38.4287 8.84682C38.0335 8.84682 37.6811 8.99634 37.3821 9.30072L32.3731 14.3097V1.77125C32.3731 1.32802 32.2396 0.975581 31.9726 0.703238C31.7056 0.436236 31.3478 0.302734 30.9046 0.302734C30.44 0.302734 30.0715 0.436236 29.8045 0.703238C29.5375 0.970241 29.404 1.32802 29.404 1.77125V14.3044L24.4271 9.32742C24.1227 9.02304 23.7756 8.87352 23.3804 8.87352C22.9853 8.87352 22.6328 9.02304 22.3338 9.32742C22.1949 9.49297 22.0828 9.66919 22.0027 9.86677C21.9226 10.0644 21.8799 10.2352 21.8799 10.3741C21.8799 10.5129 21.9226 10.6838 22.0027 10.8814C22.0828 11.079 22.1949 11.2605 22.3338 11.4207L29.8633 18.9502C29.9327 19.0196 30.0021 19.0837 30.0715 19.1424C30.1409 19.2012 30.221 19.2279 30.3172 19.2279H30.3118Z" fill="white"/>
</g>
</svg>
