<svg width="1163" height="201" viewBox="0 0 1163 201" fill="none" xmlns="http://www.w3.org/2000/svg">
<path d="M0.588105 200.626V0H79.4654C90.2266 0 99.4995 4.3515 107.17 13.169C114.84 21.9865 118.732 32.4071 118.732 44.5454V55.8822C118.732 68.9367 115.412 79.1283 108.887 86.5716C102.362 94.015 92.5162 98.5954 79.3509 100.313C92.5162 100.313 102.247 104.779 108.887 113.711C115.412 122.643 118.732 133.064 118.732 144.744V156.081C118.732 168.105 114.84 178.525 107.055 187.343C99.2705 196.16 89.9976 200.512 79.3509 200.512H0.473633L0.588105 200.626ZM39.855 89.3199H59.6602C65.0408 89.3199 69.62 87.1442 73.5124 82.6782C77.4047 78.2122 79.3509 73.0591 79.3509 66.9899V44.66C79.3509 38.5908 77.4047 33.4377 73.5124 29.0862C69.62 24.7348 64.9263 22.559 59.6602 22.559H39.855V89.4344V89.3199ZM39.855 178.296H59.6602C65.0408 178.296 69.62 176.121 73.5124 171.769C77.4047 167.418 79.3509 162.15 79.3509 156.195V133.865C79.3509 118.979 72.711 111.535 59.5457 111.535H39.7405V178.411L39.855 178.296Z" fill="#4F2C1E"/>
<path d="M158.09 200.626V0H256.544V22.33H197.472V89.2054H236.968V111.306H197.472V178.182H256.544V200.512H158.09V200.626Z" fill="#4F2C1E"/>
<path d="M414.046 156.081C412.329 185.74 399.163 200.626 374.665 200.626H335.169C324.408 200.626 315.135 196.275 307.464 187.457C299.794 178.754 295.902 168.219 295.902 156.081V44.5455C295.902 32.5216 299.68 22.101 307.35 13.2835C314.906 4.46604 324.293 0 335.283 0H374.779C399.507 0 412.672 14.8867 414.16 44.5455H394.355C392.867 29.7733 386.342 22.4445 374.779 22.4445H354.974C349.593 22.4445 344.9 24.6203 341.007 28.9717C337.115 33.3232 335.169 38.4763 335.169 44.5455V156.081C335.169 162.036 337.115 167.303 340.893 171.655C344.785 176.006 349.364 178.182 354.859 178.182H374.665C386.227 178.182 392.753 170.853 394.241 156.081H414.046Z" fill="#4F2C1E"/>
<path d="M453.518 200.626V0H492.899V81.8766L556.665 0H591.582L512.705 100.313L591.582 200.626H552.086L493.014 122.643V200.626H453.633H453.518Z" fill="#4F2C1E"/>
<path d="M630.94 200.626V0H639.869L724.127 95.0455L808.271 0H828.076V200.626H788.58V77.9832L719.434 156.195L650.86 77.9832V200.626H631.054H630.94Z" fill="#4F2C1E"/>
<path d="M867.663 200.626V44.5454C867.663 32.4071 871.555 21.8719 879.226 13.169C886.896 4.46601 896.169 0 906.93 0H946.426C957.187 0 966.46 4.3515 974.13 13.169C981.8 21.9865 985.693 32.4071 985.693 44.5454V200.626H946.311V111.421H906.815V200.626H867.434H867.663ZM906.93 89.3199H946.426V44.5454C946.426 38.4763 944.48 33.3232 940.587 28.9717C936.695 24.6202 932.001 22.4445 926.735 22.4445C921.469 22.4445 916.661 24.6202 912.768 28.9717C908.876 33.3232 906.93 38.4763 906.93 44.5454V89.3199Z" fill="#4F2C1E"/>
<path d="M1025.05 200.626V0H1033.98L1143.19 111.421V0H1163V200.626H1153.96L1044.86 89.2054V200.626H1025.05Z" fill="#4F2C1E"/>
</svg>
