<svg width="20" height="20" viewBox="0 0 20 20" fill="none" xmlns="http://www.w3.org/2000/svg">
<path d="M2.99766 16.1848V20L9.274 16.1848H14.0047C14.5511 16.1848 15.0195 15.9874 15.4098 15.5924C15.8002 15.1975 15.9953 14.7235 15.9953 14.1706V6.06635C15.9953 5.51343 15.8002 5.0395 15.4098 4.64455C15.0195 4.2496 14.5511 4.05213 14.0047 4.05213H2.01405C1.45199 4.05213 0.975802 4.2496 0.58548 4.64455C0.195158 5.0395 0 5.51343 0 6.06635V14.1706C0 14.7235 0.195158 15.1975 0.58548 15.5924C0.975802 15.9874 1.45199 16.1848 2.01405 16.1848H2.99766ZM2.01405 6.06635H14.0047V14.1706H8.73536L5.01171 16.4218V14.1706H2.01405V6.06635ZM17.9859 0H5.99532C5.44887 0 4.98049 0.19747 4.59016 0.592417C4.19984 0.987364 4.00468 1.46919 4.00468 2.03791H15.9953C16.5418 2.03791 17.0101 2.23539 17.4005 2.63033C17.7908 3.02528 17.9859 3.49921 17.9859 4.05213V12.1327C18.548 12.1327 19.0242 11.9352 19.4145 11.5403C19.8048 11.1453 20 10.6714 20 10.1185V2.03791C20 1.46919 19.8048 0.987364 19.4145 0.592417C19.0242 0.19747 18.548 0 17.9859 0Z" fill="black"/>
</svg>
