<svg width="34" height="51" viewBox="0 0 34 51" fill="none" xmlns="http://www.w3.org/2000/svg">
<path d="M23.5997 25.1976L1.96955 6.14941C1.17474 5.44947 0.777341 4.59956 0.777341 3.59965C0.777341 2.59974 1.17474 1.74982 1.96955 1.04988C2.76436 0.349949 3.72948 -1.53695e-05 4.86492 -1.54121e-05C6.00037 -1.54547e-05 6.96548 0.349949 7.76029 1.04988L32.2858 22.6479C34.216 24.3477 34.2728 25.9975 32.4561 27.5974L7.7603 49.3454C6.96548 50.0453 6.00037 50.3953 4.86493 50.3953C3.72948 50.3953 2.76437 50.0453 1.96956 49.3454C1.17474 48.6454 0.777344 47.7955 0.777344 46.7956C0.777344 45.7957 1.17474 44.9458 1.96955 44.2458L23.5997 25.1976Z" fill="var(--gray-beige)"/>
</svg>
