<svg width="30" height="30" viewBox="0 0 30 30" fill="none" xmlns="http://www.w3.org/2000/svg">
<path d="M15 0C12.9391 0 10.9953 0.400467 9.16862 1.20141C7.34191 1.9788 5.74942 3.05064 4.3911 4.41696C3.03278 5.78328 1.96722 7.38515 1.19438 9.22262C0.398122 11.0601 0 13.0153 0 15.0883C0 16.9729 0.327866 18.7515 0.983606 20.424C1.63935 22.1202 2.52927 23.6278 3.6534 24.947C4.77752 26.2662 6.1124 27.3616 7.65808 28.2332C9.20375 29.1048 10.8665 29.6938 12.6464 30V19.4346H8.85246V15.0883H12.6464V11.7668C12.6464 9.88221 13.1616 8.43346 14.192 7.4205C15.2225 6.40753 16.6042 5.90106 18.3372 5.90106C19.1569 5.90106 19.918 5.94817 20.6206 6.0424C21.3232 6.13663 21.6745 6.18375 21.6745 6.18375V9.89399H19.7775C18.8407 9.89399 18.2026 10.1413 17.863 10.636C17.5234 11.1307 17.3536 11.6726 17.3536 12.2615V15.0883H21.4988L20.8314 19.4346H17.3536V29.9647C19.1335 29.682 20.7962 29.1048 22.3419 28.2332C23.8876 27.3616 25.2283 26.2662 26.3642 24.947C27.5 23.6278 28.3841 22.1202 29.0164 20.424C29.6721 18.7515 30 16.9729 30 15.0883C30 13.0153 29.6019 11.0601 28.8056 9.22262C28.0328 7.38515 26.9672 5.78328 25.6089 4.41696C24.2506 3.05064 22.6581 1.9788 20.8314 1.20141C19.0047 0.400467 17.0609 0 15 0Z" fill="#4C4C4C"/>
</svg>
