<svg width="51" height="30" viewBox="0 0 51 30" fill="none" xmlns="http://www.w3.org/2000/svg">
<g clip-path="url(#clip0_342_1276)">
<path d="M18.7147 6.98019H18.0099L17.5029 9.85147H18.0779C18.6282 9.85147 18.9991 9.61014 19.1351 8.86137L19.2959 7.93935C19.4133 7.27103 19.2402 6.974 18.7209 6.974L18.7147 6.98019Z" fill="#36454F"/>
<path d="M50.9816 15.0619C50.9569 14.901 50.926 14.7525 50.9013 14.6164L47.5689 6.88121C47.3648 6.3676 47.0248 5.95918 46.5549 5.64359C46.085 5.33418 45.541 5.17948 44.9165 5.17948H40.7124L41.3245 1.69557C41.4048 1.23765 41.3059 0.841608 41.0277 0.501261C40.7495 0.160915 40.3662 -0.00616455 39.8839 -0.00616455H7.18432C6.21365 -0.00616455 5.32955 0.334182 4.53818 1.00869C3.74681 1.68319 3.26457 2.49384 3.09764 3.44062L0.0558161 20.7302C-0.0554701 21.349 0.00635555 21.9245 0.235111 22.4505C0.463866 22.9765 0.810089 23.3911 1.27378 23.6881C1.26142 23.7438 1.25523 23.7872 1.24905 23.8305C1.24287 23.8738 1.23669 23.9047 1.2305 23.9295C0.933741 25.6003 1.2676 27.0359 2.23208 28.224C3.19656 29.4122 4.51345 30.0062 6.18892 30.0062C7.8644 30.0062 9.33585 29.4369 10.696 28.3045C12.0562 27.1721 12.9156 25.7921 13.2865 24.177H34.0909C34.0167 25.6622 34.4618 26.906 35.4139 27.9023C36.366 28.8985 37.6025 29.3998 39.1173 29.3998C40.632 29.3998 42.0354 28.8985 43.3462 27.9023C44.6569 26.906 45.5348 25.6745 45.9799 24.2203V24.177C46.9568 24.177 47.8409 23.8367 48.6323 23.1622C49.4236 22.4876 49.9059 21.677 50.0728 20.7302L50.9878 15.5446C51.0187 15.3837 51.0187 15.2228 50.9878 15.0557L50.9816 15.0619ZM9.95411 23.323C9.83045 24.0223 9.47187 24.6349 8.88452 25.1424C8.29718 25.6498 7.63564 25.9097 6.9061 25.9097C6.17656 25.9097 5.64486 25.656 5.21826 25.1424C4.79166 24.6287 4.64946 24.0223 4.77312 23.323C4.90295 22.5928 5.26772 21.9802 5.86743 21.479C6.46714 20.9777 7.11631 20.7302 7.82112 20.7302C8.52593 20.7302 9.11946 20.9777 9.52751 21.479C9.93556 21.9802 10.0778 22.5928 9.95411 23.323ZM14.5787 11.1386H12.6806L12.0005 15H10.5291L12.1798 5.64359H16.0625L15.8275 6.98022H13.4102L12.9156 9.802H14.8136L14.5787 11.1386ZM19.9822 12.4196L19.7287 13.8614C19.6484 14.3131 19.6051 14.6473 19.6917 15H18.1955C18.1584 14.7587 18.1275 14.6102 18.2635 13.849L18.5231 12.3763C18.6777 11.5099 18.4366 11.1881 17.7751 11.1881H17.2681L16.6004 14.9938H15.1289L16.7797 5.6374H18.993C20.5139 5.6374 21.0456 6.34285 20.7921 7.79087L20.6623 8.52725C20.4954 9.48641 20.075 10.1176 19.3702 10.427C20.0502 10.7364 20.1677 11.4419 19.9946 12.4196H19.9822ZM24.7304 13.6634L24.4955 15H20.4892L22.1399 5.64359H26.1463L25.9113 6.98022H23.3765L22.9189 9.58542H24.9345L24.6995 10.9221H22.684L22.2018 13.6634H24.7366H24.7304ZM30.8203 6.98022H28.2854L27.8279 9.58542H29.8434L29.6085 10.9221H27.593L27.1107 13.6634H29.6456L29.4106 15H25.4043L27.0551 5.64359H31.0614L30.8265 6.98022H30.8203ZM42.6908 23.323C42.5672 24.0223 42.2086 24.6349 41.6212 25.1424C41.0339 25.656 40.3723 25.9097 39.6428 25.9097C38.9133 25.9097 38.3445 25.656 37.9364 25.1424C37.5284 24.6287 37.3862 24.0223 37.5098 23.323C37.6396 22.5928 37.9982 21.9802 38.5856 21.479C39.1729 20.9777 39.8283 20.7302 40.5578 20.7302C41.2874 20.7302 41.8562 20.9777 42.2642 21.479C42.6723 21.9802 42.8145 22.5928 42.6908 23.323ZM39.1853 13.8057L40.1003 8.62007H44.3045L46.4684 13.8057H39.1853Z" fill="#4F2C1E"/>
</g>
<defs>
<clipPath id="clip0_342_1276">
<rect width="51" height="30" fill="white"/>
</clipPath>
</defs>
</svg>
