<svg width="30" height="30" viewBox="0 0 30 30" fill="none" xmlns="http://www.w3.org/2000/svg">
<path d="M29.9219 8.84416C29.8958 8.1948 29.8242 7.55195 29.707 6.91558C29.5898 6.27922 29.4141 5.67533 29.1797 5.1039L29.2187 5.18182C28.8281 4.16883 28.2552 3.28572 27.5 2.53247C26.7448 1.77922 25.8724 1.20779 24.8828 0.818182L24.8438 0.779221C24.2969 0.571428 23.7174 0.409092 23.1055 0.292208C22.4935 0.175324 21.862 0.116883 21.2109 0.116883H21.1719C20.3646 0.0649348 19.6419 0.0324677 19.0039 0.0194806C18.3659 0.00649354 17.0313 0 15 0C12.9687 0 11.6276 0.00649354 10.9766 0.0194806C10.3255 0.0324677 9.60938 0.0649348 8.82812 0.116883C8.15104 0.116883 7.50651 0.181817 6.89453 0.311689C6.28255 0.441559 5.69011 0.610388 5.11719 0.818182L5.15625 0.779221C4.16666 1.19481 3.29427 1.77922 2.53906 2.53247C1.78385 3.28572 1.21094 4.14285 0.820312 5.1039L0.78125 5.18182C0.572916 5.72728 0.410157 6.30519 0.292969 6.91558C0.175781 7.52598 0.104167 8.15584 0.0781248 8.80519C0.052083 9.61039 0.0325522 10.3312 0.0195313 10.9675C0.00651045 11.6039 0 12.9351 0 14.961C0 16.987 0 18.3247 0 18.974C0 19.6234 0.0260412 20.3506 0.0781248 21.1558C0.104167 21.7792 0.175781 22.3896 0.292969 22.987C0.410157 23.5844 0.572916 24.1818 0.78125 24.7792C1.17188 25.7922 1.74479 26.6753 2.5 27.4286C3.25521 28.1818 4.1276 28.7532 5.11719 29.1429H5.19531C5.71615 29.3766 6.28255 29.5584 6.89453 29.6883C7.50651 29.8182 8.13802 29.8831 8.78906 29.8831H8.82812C9.63542 29.9351 10.3581 29.9675 10.9961 29.9805C11.6341 29.9935 12.9687 30 15 30C17.0313 30 18.3724 29.9935 19.0234 29.9805C19.6745 29.9675 20.3906 29.9351 21.1719 29.8831C21.849 29.8831 22.4935 29.8182 23.1055 29.6883C23.7174 29.5584 24.3229 29.3896 24.9219 29.1818L24.8438 29.2208C25.8333 28.8052 26.7057 28.2208 27.4609 27.4675C28.2161 26.7143 28.7891 25.8571 29.1797 24.8961L29.2187 24.8182C29.4271 24.2467 29.5898 23.6558 29.707 23.0455C29.8242 22.4351 29.8958 21.8182 29.9219 21.1948C29.9479 20.3896 29.9674 19.6688 29.9805 19.0325C29.9935 18.3961 30 17.0649 30 15.039C30 12.987 30 11.6429 30 11.0065C30 10.3701 29.974 9.64935 29.9219 8.84416ZM15 22.6364C13.9323 22.6364 12.9297 22.4416 11.9922 22.0519C11.0547 21.6364 10.2344 21.0844 9.53125 20.3961C8.82812 19.7078 8.28125 18.8961 7.89062 17.961C7.47396 17.026 7.26562 16.026 7.26562 14.961C7.26562 13.8961 7.47396 12.8961 7.89062 11.961C8.28125 11.026 8.82812 10.2143 9.53125 9.52597C10.2344 8.83766 11.0547 8.28572 11.9922 7.87013C12.9297 7.48052 13.9323 7.28571 15 7.28571C16.0677 7.28571 17.0703 7.48052 18.0078 7.87013C18.9193 8.28572 19.7266 8.83766 20.4297 9.52597C21.1328 10.2143 21.6797 11.026 22.0703 11.961C22.487 12.8961 22.6953 13.8961 22.6953 14.961C22.6953 16.026 22.487 17.026 22.0703 17.961C21.6797 18.8961 21.1328 19.7078 20.4297 20.3961C19.7266 21.0844 18.9193 21.6364 18.0078 22.0519C17.0703 22.4416 16.0677 22.6364 15 22.6364ZM23.0078 8.80519C22.513 8.80519 22.0898 8.62987 21.7383 8.27922C21.3867 7.92857 21.2109 7.5065 21.2109 7.01299C21.2109 6.51948 21.3867 6.0974 21.7383 5.74675C22.0898 5.3961 22.513 5.22078 23.0078 5.22078C23.5026 5.22078 23.9258 5.3961 24.2773 5.74675C24.6289 6.0974 24.8047 6.51948 24.8047 7.01299C24.8047 7.5065 24.6289 7.92857 24.2773 8.27922C23.9258 8.62987 23.5026 8.80519 23.0078 8.80519ZM20 14.961C20 16.3377 19.5117 17.513 18.5352 18.487C17.5586 19.461 16.3802 19.9481 15 19.9481C13.6198 19.9481 12.4414 19.461 11.4648 18.487C10.4883 17.513 10 16.3377 10 14.961C10 13.5844 10.4883 12.4091 11.4648 11.4351C12.4414 10.461 13.6198 9.97403 15 9.97403C16.3802 9.97403 17.5586 10.461 18.5352 11.4351C19.5117 12.4091 20 13.5844 20 14.961Z" fill="#4C4C4C"/>
</svg>
