<svg width="114" height="38" viewBox="0 0 114 38" fill="none" xmlns="http://www.w3.org/2000/svg">
<g clip-path="url(#clip0_1664_5231)">
<path d="M31.0757 15.5708C30.6993 15.2498 30.3789 14.99 30.0739 14.7149C29.211 13.943 28.3539 13.1673 27.4969 12.3917C26.3946 11.3925 25.6901 10.1583 25.331 8.73496C24.9508 7.22757 25.248 5.78132 25.7885 4.3599C26.107 3.52119 26.5877 2.78946 27.2537 2.18001C28.2188 1.29926 29.3635 0.722291 30.6221 0.399415C32.4907 -0.0782118 34.3901 -0.0896748 36.2953 0.166333C38.1079 0.410878 39.7893 1.08911 41.4841 1.71384C43.0399 2.28509 44.6305 2.67292 46.2926 2.71495C47.113 2.73597 47.8503 2.45703 48.4893 1.93546C48.6785 1.78071 48.8811 1.63933 49.0954 1.52088C49.1861 1.4693 49.3772 1.44637 49.4236 1.49796C49.4988 1.58011 49.5317 1.7425 49.5104 1.85904C49.385 2.51244 49.0182 3.02827 48.5221 3.46005C47.4006 4.43059 46.0744 4.75728 44.6074 4.77066C42.0227 4.79549 39.6001 4.07714 37.1659 3.35306C35.8572 2.96332 34.5252 2.59841 33.1779 2.39399C31.5409 2.14562 30.0604 2.71877 28.8771 3.82305C27.8849 4.74773 27.5046 5.96663 27.5857 7.34029C27.6552 8.52289 28.1706 9.524 28.8636 10.4086C29.4677 11.1804 30.2051 11.8644 31.0661 12.3993C32.1567 13.0756 33.23 13.7825 34.2878 14.5085C34.8553 14.8983 35.3649 15.0339 36.0541 14.7225C37.3223 14.1493 38.687 13.7768 39.9282 13.1578C41.0305 12.6076 41.9512 11.7975 42.0072 10.3971C42.0362 9.67493 41.82 9.09987 41.2119 8.67191C41.0845 8.58212 40.9166 8.39298 40.9397 8.28408C40.9648 8.15799 41.1656 8.0338 41.3162 7.97076C42.4782 7.49504 43.677 7.89816 44.2869 8.9776C45.0436 10.3188 44.9394 11.9332 43.4685 13.1826C42.5863 13.9315 41.598 14.4875 40.4861 14.8352C39.324 15.2001 38.1678 15.5899 37.0115 15.9701C36.9652 15.9853 36.9266 16.0274 36.8281 16.0981C37.3107 16.3904 37.7778 16.6349 38.2025 16.9368C38.8994 17.4354 39.6194 17.9188 40.2371 18.5034C40.9533 19.1816 41.6404 19.9153 42.2099 20.7138C42.6906 21.3883 43.038 22.1735 43.3449 22.9472C43.5959 23.5834 43.7754 24.2674 43.8584 24.9456C44.0592 26.5772 43.7619 28.1495 43.1519 29.6799C42.4145 31.5311 41.0729 32.8188 39.3897 33.8409C38.1813 34.5746 36.8899 35.1191 35.5194 35.3846C32.149 36.038 28.8655 35.7285 25.7982 34.1161C23.1517 32.7233 21.2078 30.6561 20.5515 27.7197C20.0361 25.4194 20.1674 23.1211 21.5649 21.0291C22.3776 19.8102 23.449 18.8893 24.6342 18.0812C25.8657 17.2405 27.2305 16.6292 28.6396 16.1458C29.2959 15.9204 29.9967 15.8153 30.6761 15.6567C30.7784 15.6338 30.8808 15.6128 31.0796 15.5708M31.6934 34.0377C32.925 33.9518 34.2955 33.7779 35.6081 33.1341C36.5598 32.666 37.413 32.0967 38.1465 31.3783C38.6755 30.8625 39.1252 30.2339 39.4823 29.5862C40.2023 28.2814 40.6212 26.8982 40.3645 25.3678C40.1695 24.1967 39.6445 23.186 38.9766 22.2346C38.0751 20.9488 36.9961 19.8216 35.7568 18.8473C35.1777 18.3926 34.6082 17.9245 34.0137 17.4908C33.423 17.061 32.7706 16.782 32.0139 17.0094C31.1491 17.2692 30.2708 17.4985 29.433 17.8271C28.2883 18.2741 27.2093 18.8377 26.1958 19.5599C24.9778 20.4273 24.0126 21.4761 23.474 22.8364C23.171 23.6044 23.0204 24.4604 22.9702 25.2876C22.8525 27.1866 23.2772 28.9558 24.4527 30.5262C25.0222 31.2885 25.6804 31.9381 26.4487 32.4864C27.9582 33.5639 29.6646 34.0244 31.6934 34.0377Z" fill="white"/>
<path d="M7.51256 18.1615C8.28856 18.1615 8.99506 18.194 9.69964 18.1519C10.4158 18.1099 11.0933 17.8233 11.6029 17.3591C12.2207 16.7974 12.4407 15.974 12.2322 15.1887C12.0431 14.4704 11.381 14.0654 10.6474 14.0061C9.48923 13.9106 8.32138 13.9202 7.15738 13.88C6.87555 13.8705 6.8215 14.0214 6.81185 14.2641C6.70954 16.9311 6.58407 19.6001 6.49528 22.2691C6.43158 24.1796 6.39876 26.092 6.38139 28.0025C6.37753 28.3942 6.23661 28.484 5.87564 28.4821C4.19045 28.4687 2.50334 28.4706 0.818156 28.4782C0.5537 28.4782 0.482277 28.3693 0.503511 28.1305C0.625122 26.753 0.766037 25.3775 0.856763 23.9981C0.986095 22.0513 1.11157 20.1007 1.18106 18.1519C1.26213 15.8498 1.28144 13.5438 1.32776 11.2416C1.33356 10.957 1.35672 10.6742 1.35093 10.3896C1.34514 10.0724 1.48798 9.96924 1.80456 9.9807C2.81799 10.0189 3.83334 10.059 4.84677 10.0514C7.06666 10.0361 9.28847 9.96924 11.5084 9.96924C12.7708 9.96924 14.0255 10.0781 15.2127 10.5959C17.0079 11.3773 18.114 13.1426 17.9731 15.034C17.8785 16.2892 17.6353 17.5157 16.7261 18.4423C16.1952 18.9811 15.5312 19.453 14.8382 19.7625C13.6723 20.2822 13.624 20.2268 14.1085 21.375C14.5081 22.3226 14.9656 23.2473 15.3864 24.1872C15.7725 25.0527 16.1392 25.9258 16.5253 26.7913C16.7183 27.2249 16.9365 27.6472 17.143 28.0751C17.2666 28.3311 17.2588 28.4668 16.8979 28.4649C15.2532 28.4515 13.6066 28.463 11.962 28.4649C11.8925 28.4649 11.8249 28.4668 11.7554 28.4687C10.9042 28.484 10.9428 28.4744 10.7555 27.6624C10.5915 26.9517 10.3309 26.262 10.1031 25.5666C9.78843 24.6018 9.47958 23.6351 9.14177 22.6798C8.94294 22.1182 8.68428 21.5775 8.47194 21.0196C8.15923 20.1981 7.86195 19.3708 7.56468 18.5417C7.52029 18.4194 7.52608 18.2819 7.5087 18.1615" fill="white"/>
<path d="M105.949 9.91149C108.335 9.91149 110.723 9.91531 113.109 9.90576C113.389 9.90576 113.524 9.96499 113.511 10.2573C113.455 11.4227 113.401 12.5862 113.356 13.7516C113.345 14.0325 113.159 13.9962 112.982 13.9923C111.515 13.9732 110.046 13.9427 108.579 13.9388C107.235 13.935 105.894 13.9694 104.55 13.9694C104.195 13.9694 104.079 14.1012 104.079 14.4528C104.077 15.1711 104.037 15.8895 103.988 16.6059C103.965 16.9422 104.069 17.0606 104.423 17.0549C106.714 17.0186 109.005 17.0071 111.295 16.9708C111.663 16.9651 111.766 17.0702 111.739 17.437C111.659 18.5317 111.607 19.6302 111.571 20.7269C111.559 21.0612 111.412 21.1357 111.111 21.1319C109.687 21.1166 108.26 21.0956 106.836 21.1109C105.89 21.1204 104.944 21.1854 103.998 21.2179C103.778 21.2255 103.677 21.3115 103.672 21.5369C103.643 22.3776 103.606 23.2163 103.564 24.0569C103.55 24.3282 103.668 24.4046 103.93 24.3989C105.89 24.3568 107.851 24.3282 109.81 24.2881C110.727 24.269 111.644 24.225 112.563 24.2193C112.657 24.2193 112.837 24.4065 112.833 24.502C112.793 25.6942 112.723 26.8844 112.663 28.0766C112.652 28.3307 112.493 28.388 112.275 28.388C111.574 28.3861 110.876 28.388 110.175 28.3842C108.418 28.3785 106.664 28.367 104.907 28.3689C103.193 28.3689 101.479 28.3842 99.7647 28.388C99.1064 28.388 98.4482 28.3555 97.7919 28.3727C97.4367 28.3823 97.373 28.2371 97.4 27.9333C97.5564 26.1776 97.732 24.4237 97.8459 22.6641C97.9637 20.853 98.0351 19.0361 98.0911 17.2211C98.1644 14.9189 98.2088 12.6149 98.2552 10.3108C98.261 9.98027 98.4385 9.94015 98.7069 9.94397C100.257 9.96499 101.807 9.98027 103.357 9.99173C104.222 9.99747 105.087 9.99173 105.949 9.99173V9.90958V9.91149Z" fill="white"/>
<path d="M58.3266 28.7343C56.1068 28.7514 54.1243 28.5203 52.3098 27.5574C51.555 27.1581 50.806 26.7053 50.1575 26.157C48.6595 24.8922 47.8661 23.2454 47.6384 21.3024C47.4087 19.3422 47.4743 17.4317 48.2908 15.5976C49.173 13.6126 50.6111 12.1415 52.5337 11.1175C53.8637 10.4087 55.2883 10.0227 56.7804 9.80112C58.1355 9.60051 59.481 9.55657 60.8361 9.72279C61.8012 9.84124 62.7683 9.96733 63.7335 10.082C63.9767 10.1106 64.0868 10.21 64.1003 10.4698C64.1698 11.6868 64.2547 12.9038 64.3416 14.1208C64.3705 14.522 64.1447 14.4742 63.8686 14.4303C62.666 14.2354 61.4654 13.9947 60.2531 13.8934C59.5177 13.8323 58.7475 13.924 58.0178 14.0711C56.8113 14.3137 55.7438 14.8984 54.935 15.8154C53.9371 16.9483 53.5143 18.3086 53.4834 19.8236C53.4506 21.4609 54.1513 22.7181 55.4234 23.6542C56.1608 24.1968 57.0738 24.4241 58.0043 24.5388C59.4694 24.7222 60.9036 24.5693 62.3244 24.2121C62.7606 24.1032 63.2027 24.021 63.6447 23.9331C64.0018 23.8625 63.9497 24.1013 63.9169 24.3057C63.7818 25.1349 63.6389 25.9621 63.5057 26.7932C63.4401 27.2078 63.4092 27.63 63.3243 28.0407C63.2992 28.1592 63.1506 28.3292 63.0425 28.3445C61.9422 28.4897 60.8399 28.6254 59.7358 28.7247C59.2069 28.7725 58.6683 28.7323 58.3286 28.7323" fill="white"/>
<path d="M86.1403 28.3727C85.3856 28.3727 84.6945 28.3727 84.0034 28.3727C82.5094 28.3727 81.0153 28.3689 79.5231 28.3823C79.2548 28.3842 79.1062 28.3039 78.9711 28.0689C78.0078 26.4144 77.0349 24.7638 76.0524 23.1207C75.2088 21.7108 74.3382 20.3161 73.4966 18.9062C73.4233 18.7839 73.4078 18.5393 73.4831 18.4362C74.2186 17.4274 74.9868 16.4416 75.7281 15.4367C76.7029 14.1146 77.6681 12.783 78.6255 11.4475C78.9035 11.0616 79.1216 10.6356 79.4092 10.2573C79.5154 10.1178 79.7393 9.98981 79.9111 9.9879C81.9534 9.96689 83.9976 9.9688 86.0419 9.9688C86.0901 9.9688 86.1403 9.99936 86.2542 10.0376C85.9647 10.4464 85.7099 10.8343 85.4242 11.2011C84.8238 11.971 84.21 12.7314 83.5942 13.488C82.5402 14.7852 81.4747 16.0729 80.4285 17.3758C80.1486 17.7255 79.9111 18.1076 79.6756 18.4878C79.6332 18.5546 79.666 18.6979 79.7104 18.782C79.886 19.1182 80.0578 19.4602 80.274 19.7716C81.6948 21.8254 83.129 23.8716 84.5536 25.9234C85.0478 26.6361 85.5265 27.3582 86.011 28.0785C86.0535 28.1415 86.0747 28.218 86.1442 28.3708" fill="white"/>
<path d="M90.9587 28.4261C90.0534 28.4261 89.15 28.4223 88.2447 28.428C87.9783 28.4299 87.9184 28.2962 87.9339 28.0689C88.0516 26.2959 88.181 24.5249 88.2775 22.7519C88.3779 20.9121 88.4705 19.0704 88.5226 17.2286C88.5844 15.0354 88.6018 12.8402 88.6385 10.6469C88.6404 10.5247 88.6481 10.4024 88.6481 10.282C88.6481 10.0317 88.7581 9.92858 89.0265 9.92858C90.8641 9.93431 92.6999 9.92858 94.5376 9.92285C94.8271 9.92285 94.8368 10.0948 94.8233 10.3011C94.7827 10.9908 94.7364 11.6824 94.6997 12.3721C94.5588 15.1061 94.4005 17.84 94.2905 20.5739C94.1901 23.0385 94.1322 25.503 94.082 27.9695C94.0743 28.3535 93.9199 28.4319 93.5917 28.428C92.7153 28.4185 91.837 28.4242 90.9607 28.4242V28.428L90.9587 28.4261Z" fill="white"/>
<path d="M69.5604 28.3938C68.6705 28.3938 67.7787 28.3823 66.8888 28.3995C66.6243 28.4052 66.551 28.3326 66.5703 28.0785C66.7788 25.3503 67.0066 22.624 67.1726 19.892C67.2865 18.0121 67.3154 16.1283 67.3791 14.2446C67.4254 12.932 67.4718 11.6195 67.5046 10.307C67.5104 10.0758 67.5972 9.99367 67.8212 9.99367C69.6299 9.98985 71.4405 9.98221 73.2493 9.97266C73.4944 9.97266 73.6353 10.0319 73.616 10.3185C73.4635 12.6703 73.3091 15.024 73.1798 17.3778C73.062 19.5137 72.9732 21.6516 72.8709 23.7895C72.8053 25.1956 72.7377 26.6036 72.6798 28.0117C72.6682 28.2868 72.5524 28.3976 72.2744 28.3957C71.3691 28.388 70.4638 28.3919 69.5585 28.3919" fill="white"/>
</g>
<defs>
<clipPath id="clip0_1664_5231">
<rect width="113" height="38" fill="white" transform="translate(0.5)"/>
</clipPath>
</defs>
</svg>
