<svg width="50" height="27" viewBox="0 0 50 27" fill="none" xmlns="http://www.w3.org/2000/svg">
<path d="M11.8094 1.07259C13.3892 1.07259 14.547 1.68395 15.2828 2.90667C16.0186 4.11858 16.3865 5.80117 16.3865 7.95446C16.3865 8.52795 16.1214 8.87962 15.5912 9.00947L13.1728 9.64247C12.9455 9.70739 12.6967 9.69116 12.4262 9.59378C12.1556 9.48557 12.015 9.26916 12.0042 8.94454C11.9284 7.08341 11.5876 5.7633 10.9816 4.98422C10.9167 4.95176 10.8355 4.96258 10.7382 5.01668C10.3594 5.23309 9.92661 5.82822 9.43968 6.80207C8.95276 7.77592 8.7093 8.69026 8.7093 9.54509C8.7093 10.1619 8.83914 10.5947 9.09884 10.8436C9.35853 11.0816 9.84004 11.3034 10.5434 11.509L11.1439 11.6713C11.5984 11.8012 11.9771 11.9472 12.2801 12.1096C12.5831 12.2719 12.8806 12.5153 13.1728 12.8399C13.4649 13.1646 13.6813 13.6082 13.822 14.1709C13.9627 14.7227 14.033 15.399 14.033 16.1997C14.033 17.3683 13.7895 18.5532 13.3026 19.7543C12.8157 20.9554 12.1827 22.0158 11.4036 22.9355C10.6354 23.8445 9.74807 24.5911 8.74176 25.1754C7.73545 25.7489 6.73995 26.0356 5.75528 26.0356C4.94374 26.0356 4.22958 25.9004 3.61281 25.6298C2.99604 25.3593 2.51453 25.0239 2.16827 24.6235C1.82201 24.2232 1.54068 23.7362 1.32426 23.1628C1.10785 22.5893 0.967186 22.0537 0.902263 21.5559C0.837339 21.0473 0.804878 20.5117 0.804878 19.9491C0.804878 19.592 0.869801 19.2674 0.999648 18.9752C1.14032 18.683 1.3405 18.4883 1.60019 18.3909L4.16466 17.482C4.56502 17.3521 4.87882 17.3359 5.10605 17.4333C5.3441 17.5307 5.46313 17.7146 5.46313 17.9851C5.3982 20.6362 5.56051 22.1889 5.95005 22.6434C6.16646 22.6434 6.35582 22.6109 6.51813 22.546C7.10244 22.2538 7.64888 21.6587 8.15745 20.7606C8.66601 19.8625 8.9203 18.8399 8.9203 17.693C8.9203 17.3792 8.91489 17.1357 8.90407 16.9626C8.89325 16.7786 8.85537 16.5784 8.79045 16.362C8.72553 16.1348 8.62814 15.9563 8.4983 15.8264C8.36845 15.6858 8.1845 15.5505 7.94645 15.4206C7.71921 15.2908 7.43247 15.1826 7.08621 15.096L6.55059 14.9662C6.21516 14.8796 5.88513 14.7606 5.56051 14.6091C5.24672 14.4468 4.9221 14.2304 4.58666 13.9599C4.26205 13.6785 3.99694 13.3106 3.79135 12.8562C3.59658 12.4017 3.4992 11.8877 3.4992 11.3142C3.4992 10.243 3.72643 9.10685 4.18089 7.90577C4.63536 6.69387 5.23049 5.58476 5.96628 4.57845C6.7129 3.57214 7.6056 2.73895 8.64437 2.0789C9.68315 1.40803 10.7382 1.07259 11.8094 1.07259ZM23.1041 25.3052C23.1041 25.3052 22.812 24.6073 22.2277 23.2115H22.2439L22.179 23.0654L21.8706 23.4387C21.1889 24.2502 20.6533 24.8129 20.2637 25.1267C19.885 25.4405 19.5009 25.5974 19.1113 25.5974H18.8679C18.4891 25.5974 17.9373 25.2349 17.2123 24.5099C16.2493 23.5469 15.8273 22.4702 15.9463 21.28C16.1844 18.8778 16.812 16.3242 17.8291 13.619C18.8462 10.9031 19.8255 9.18801 20.7669 8.47385C21.5135 7.90036 22.4008 7.61362 23.4287 7.61362C24.3918 7.61362 25.3007 7.922 26.1555 8.53877L26.188 8.37647C26.2313 8.19252 26.2745 8.04644 26.3178 7.93823C26.3611 7.83003 26.4423 7.72723 26.5613 7.62985C26.6803 7.53246 26.8318 7.48377 27.0157 7.48377L29.142 7.45131C29.9644 7.45131 30.2781 7.81921 30.0834 8.555L26.4314 20.7606C26.7452 20.4252 26.9833 20.1222 27.1456 19.8517C27.362 19.4946 27.6433 19.4188 27.9896 19.6244L29.4504 20.5821C29.7966 20.8201 29.8724 21.0744 29.6776 21.3449C28.8985 22.4811 27.9896 23.4549 26.9508 24.2665C25.9121 25.078 24.8246 25.5433 23.6884 25.6623C23.4287 25.6948 23.234 25.5757 23.1041 25.3052ZM25.4738 11.3142C24.6082 11.0329 24.013 11.0059 23.6884 11.2331C23.234 11.5794 22.6497 12.7101 21.9355 14.6253C21.2322 16.5406 20.7561 18.1799 20.5072 19.5433C20.4314 19.9545 20.399 20.225 20.4098 20.3548C20.4314 20.4847 20.518 20.5496 20.6695 20.5496C20.8426 20.5496 21.0969 20.3548 21.4323 19.9653C21.7786 19.5649 22.1681 18.9968 22.601 18.261C23.5965 16.5514 24.5541 14.2358 25.4738 11.3142ZM39.796 1.04012C39.796 1.04012 37.7834 8.94995 33.7581 24.7696C33.6283 25.2565 33.2929 25.5 32.7518 25.5H30.2036C29.8465 25.5 29.5976 25.3972 29.457 25.1916C29.3055 24.986 29.2622 24.7317 29.3271 24.4288L35.3163 1.00766C35.4461 0.520739 35.7762 0.277277 36.3064 0.277277H39.0656C39.6716 0.277277 39.915 0.531559 39.796 1.04012ZM42.9288 16.995C43.6971 16.5081 44.3572 15.7399 44.909 14.6903C45.4717 13.6407 45.753 12.6776 45.753 11.8012C45.753 11.4549 45.7206 11.2223 45.6556 11.1032C45.6015 10.9734 45.4933 10.9085 45.331 10.9085C45.1687 10.9085 44.9793 11.0816 44.7629 11.4279C44.5573 11.7741 44.3896 12.1204 44.2598 12.4666C43.827 13.592 43.3833 15.1014 42.9288 16.995ZM42.1498 20.6145C42.0524 21.1231 42.0253 21.4531 42.0686 21.6046C42.1227 21.7453 42.2796 21.8589 42.5393 21.9454C42.9072 21.8697 43.6484 21.2367 44.7629 20.0464C44.8495 19.9599 44.9577 19.9112 45.0876 19.9004C45.2174 19.8895 45.331 19.9166 45.4284 19.9815L47.0515 20.9716C47.1813 21.0473 47.2733 21.1664 47.3274 21.3287C47.3923 21.491 47.3977 21.6208 47.3436 21.7182C46.9541 22.4757 46.056 23.4279 44.6493 24.5748C43.2426 25.7218 42.2688 26.2412 41.7278 26.133C39.6069 25.6677 38.4004 24.7588 38.1083 23.4062C37.9135 22.454 37.9839 21.0041 38.3193 19.0564C38.6547 17.1087 39.1741 15.188 39.8775 13.2944C40.5916 11.4008 41.322 10.1078 42.0686 9.41524C42.5664 8.93913 43.0857 8.555 43.6268 8.26285C44.1786 7.95987 44.7467 7.77051 45.331 7.69477C45.9261 7.60821 46.4888 7.68395 47.019 7.922C48.5664 8.58206 49.34 9.72362 49.34 11.3467C49.34 12.4504 48.9938 13.6461 48.3013 14.9337C47.6087 16.2105 46.7052 17.3683 45.5907 18.4071C44.4762 19.4351 43.3292 20.1709 42.1498 20.6145Z" fill="black"/>
</svg>
