<svg width="54" height="40" viewBox="0 0 54 40" fill="none" xmlns="http://www.w3.org/2000/svg">
<mask id="mask0_882_1837" style="mask-type:alpha" maskUnits="userSpaceOnUse" x="0" y="0" width="54" height="40">
<rect width="54" height="40" fill="#D9D9D9"/>
</mask>
<g mask="url(#mask0_882_1837)">
<path d="M47.9113 26.8159C47.8419 27.1897 47.671 27.4781 47.404 27.6917C47.137 27.8999 46.8166 28.0067 46.4428 28.0067H31.9766C31.6027 28.0067 31.277 27.8999 30.9993 27.6917C30.7216 27.4834 30.5454 27.1897 30.476 26.8159L28.2385 16.0877H50.0046L47.9059 26.8159H47.9113ZM52.979 13.7167C52.8401 13.4818 52.6639 13.3269 52.4557 13.2468C52.2474 13.1667 52.0231 13.124 51.7935 13.124H27.6511L26.4656 6.83341C26.3962 6.45961 26.22 6.17124 25.9423 5.95764C25.6646 5.74938 25.3389 5.64258 24.9651 5.64258H19.0269C18.5623 5.64258 18.1939 5.78142 17.9269 6.06444C17.6599 6.34213 17.5264 6.70525 17.5264 7.14847C17.5264 7.5917 17.6599 7.94948 17.9269 8.2325C18.1939 8.51019 18.5623 8.65437 19.0269 8.65437H23.7796L24.9651 14.9076V15.0464L27.5176 27.414C27.7259 28.4606 28.2385 29.3257 29.0555 29.9986C29.8726 30.6714 30.8017 31.0132 31.8484 31.0132H46.4534C47.5695 31.0132 48.5361 30.6767 49.3531 29.9986C50.1701 29.3257 50.6934 28.4606 50.9231 27.414L53.2994 14.9076C53.2994 14.6726 53.2887 14.4537 53.262 14.2454C53.2353 14.0371 53.1445 13.8609 52.9843 13.7221L52.979 13.7167ZM50.325 36.9513C50.325 37.7897 50.0313 38.4999 49.4492 39.082C48.8671 39.6641 48.1569 39.9578 47.3185 39.9578C46.4801 39.9578 45.802 39.6641 45.2199 39.082C44.6378 38.4999 44.3441 37.7897 44.3441 36.9513C44.3441 36.1129 44.6378 35.4347 45.2199 34.8527C45.802 34.2706 46.5015 33.9769 47.3185 33.9769C48.1356 33.9769 48.8671 34.2706 49.4492 34.8527C50.0313 35.4347 50.325 36.1343 50.325 36.9513ZM33.899 36.9513C33.899 37.7897 33.6053 38.4999 33.0232 39.082C32.4411 39.6641 31.7416 39.9578 30.9246 39.9578C30.1075 39.9578 29.408 39.6641 28.8259 39.082C28.2439 38.4999 27.9502 37.7897 27.9502 36.9513C27.9502 36.1129 28.2439 35.4347 28.8259 34.8527C29.408 34.2706 30.1075 33.9769 30.9246 33.9769C31.7416 33.9769 32.4411 34.2706 33.0232 34.8527C33.6053 35.4347 33.899 36.1343 33.899 36.9513Z" fill="white"/>
<path d="M20.0252 20.0439H1.48453C0.664649 20.0439 0 20.7086 0 21.5285C0 22.3484 0.664649 23.013 1.48453 23.013H20.0252C20.8451 23.013 21.5097 22.3484 21.5097 21.5285C21.5097 20.7086 20.8451 20.0439 20.0252 20.0439Z" fill="white"/>
<path d="M15.0798 28.0391H6.42887C5.60898 28.0391 4.94434 28.7037 4.94434 29.5236C4.94434 30.3435 5.60898 31.0081 6.42887 31.0081H15.0798C15.8996 31.0081 16.5643 30.3435 16.5643 29.5236C16.5643 28.7037 15.8996 28.0391 15.0798 28.0391Z" fill="white"/>
<path d="M17.2158 12.0449H6.42887C5.60898 12.0449 4.94434 12.7096 4.94434 13.5295C4.94434 14.3493 5.60898 15.014 6.42887 15.014H17.2158C18.0357 15.014 18.7003 14.3493 18.7003 13.5295C18.7003 12.7096 18.0357 12.0449 17.2158 12.0449Z" fill="white"/>
</g>
</svg>
