<svg width="24" height="37" viewBox="0 0 24 37" fill="none" xmlns="http://www.w3.org/2000/svg">
<path d="M23.1917 15.6963C23.5037 15.6963 23.7377 15.8325 23.8936 16.105C24.0496 16.3775 24.034 16.6228 23.8469 16.8408L6.62621 36.4611C6.50142 36.6246 6.34544 36.6655 6.15825 36.5838C5.97107 36.502 5.90868 36.3794 5.97107 36.2159L10.8378 20.9284H0.730005C0.418036 20.9284 0.19966 20.8194 0.0748722 20.6014C-0.0499146 20.3834 -0.0187183 20.1381 0.168463 19.8656L17.2955 0.163503C17.4203 0 17.5763 -0.0408757 17.7635 0.0408757C17.9507 0.122628 18.013 0.245254 17.9507 0.408757L13.0839 15.6963H23.1917Z" fill="#FFD500"/>
</svg>
