<svg width="26" height="30" viewBox="0 0 26 30" fill="none" xmlns="http://www.w3.org/2000/svg">
<path d="M24.4624 7.034C22.948 6.70574 21.6725 5.96132 20.6358 4.8007C19.599 3.64009 18.9991 2.27433 18.836 0.7034V0.66823V0H13.6989V20.5393C13.6989 21.7351 13.2796 22.755 12.4409 23.5991C11.6021 24.4431 10.5771 24.8652 9.36559 24.8652C8.66666 24.8652 8.02016 24.7069 7.42608 24.3904C6.83199 24.0739 6.33692 23.6577 5.94086 23.1419C5.66129 22.7667 5.44579 22.3564 5.29435 21.9109C5.14292 21.4654 5.0672 20.9965 5.0672 20.5041C5.0672 19.3083 5.48656 18.2884 6.32527 17.4443C7.16398 16.6002 8.17741 16.1782 9.36559 16.1782C9.36559 16.1782 9.37724 16.1782 9.40054 16.1782H9.36559C9.38889 16.1782 9.40054 16.1782 9.40054 16.1782C9.63351 16.1782 9.86066 16.1958 10.082 16.2309C10.3033 16.2661 10.5188 16.3189 10.7285 16.3892L10.6935 16.354V11.1137C10.5072 11.0903 10.3091 11.0727 10.0995 11.061C9.88978 11.0492 9.66846 11.0434 9.43548 11.0434C9.38889 11.0434 9.34812 11.0434 9.31317 11.0434C9.27823 11.0434 9.23746 11.0434 9.19086 11.0434C7.93279 11.0668 6.74463 11.3365 5.62634 11.8523C4.50806 12.3681 3.5354 13.0539 2.70833 13.9097C1.88127 14.7655 1.22312 15.7561 0.733871 16.8816C0.244621 18.0305 0 19.2497 0 20.5393C0 21.8288 0.244621 23.0422 0.733871 24.1794C1.22312 25.3165 1.87544 26.3189 2.69086 27.1864C3.55287 28.0539 4.5663 28.7397 5.73118 29.2438C6.89606 29.7479 8.13082 30 9.43548 30C10.7401 30 11.9633 29.7538 13.1048 29.2614C14.2697 28.769 15.2773 28.095 16.1277 27.2392C16.9781 26.3833 17.6478 25.381 18.1371 24.2321C18.6496 23.0832 18.9059 21.8523 18.9059 20.5393V10.0234C19.8844 10.7268 20.9736 11.2837 22.1734 11.694C23.3732 12.1043 24.6371 12.3095 25.9651 12.3095C25.9651 12.3095 25.9709 12.3095 25.9825 12.3095C25.9942 12.3095 26 12.3095 26 12.3095V7.20985C26 7.20985 25.9884 7.20985 25.9651 7.20985C25.7088 7.20985 25.4583 7.19226 25.2137 7.15709C24.9691 7.12192 24.7186 7.08089 24.4624 7.034Z" fill="#4C4C4C"/>
</svg>
