<svg width="30" height="30" viewBox="0 0 30 30" fill="none" xmlns="http://www.w3.org/2000/svg">
<path fill-rule="evenodd" clip-rule="evenodd" d="M13.6148 0.100098H16.2739C19.9258 0.100098 22.0599 0.636476 23.9543 1.65217C25.8487 2.66786 27.3437 4.15146 28.348 6.04592C29.3637 7.94035 29.9001 10.0744 29.9001 13.7264V16.374C29.9001 20.0259 29.3637 22.16 28.348 24.0544C27.3323 25.9489 25.8487 27.4439 23.9543 28.4482C22.0599 29.4639 19.9258 30.0003 16.2739 30.0003H13.6262C9.97429 30.0003 7.8402 29.4639 5.94576 28.4482C4.05135 27.4325 2.55634 25.9489 1.55207 24.0544C0.536372 22.16 0 20.0259 0 16.374V13.7264C0 10.0744 0.536372 7.94035 1.55207 6.04592C2.56775 4.15146 4.05135 2.65645 5.94576 1.65217C7.82882 0.636476 9.97429 0.100098 13.6148 0.100098Z" fill="#4C4C4C"/>
<path opacity="0.12" fill-rule="evenodd" clip-rule="evenodd" d="M29.9003 15.937V16.3739C29.9003 20.0259 29.364 22.1599 28.3483 24.0544C27.3326 25.9488 25.849 27.4438 23.9545 28.4481C22.0601 29.4638 19.926 30.0002 16.2741 30.0002H13.6265C10.6383 30.0002 8.66633 29.6411 7.01035 28.9541L4.28027 26.1428L29.9003 15.937Z" fill="#001A33"/>
<path fill-rule="evenodd" clip-rule="evenodd" d="M4.58309 26.2407C5.98147 26.3953 7.7298 25.9965 8.97119 25.3939C14.3617 28.3733 22.788 28.231 27.8885 24.9669C28.0863 24.6701 28.2711 24.3615 28.4426 24.0416C29.4621 22.1403 30.0004 19.9984 30.0004 16.3332V13.6759C30.0004 10.0107 29.4621 7.8688 28.4426 5.96746C27.4347 4.06612 25.9343 2.57712 24.0329 1.55772C22.1316 0.538332 19.9897 0 16.3245 0H13.6558C10.5341 0 8.50765 0.392958 6.80501 1.14316C6.71194 1.2265 6.62062 1.31126 6.53122 1.39745C1.53597 6.21282 1.15625 16.6509 5.39205 22.3211C5.39678 22.3294 5.40201 22.3379 5.40776 22.3464C6.06064 23.3085 5.43067 24.9923 4.44564 25.9773C4.28529 26.1262 4.34255 26.2178 4.58309 26.2407Z" fill="white"/>
<path d="M12.2798 10.2339H6.4254V11.4892H10.4881L6.48241 16.4536C6.35689 16.6362 6.26562 16.8074 6.26562 17.1954V17.5149H11.7891C12.063 17.5149 12.2913 17.2867 12.2913 17.0128V16.3394H8.0231L11.7891 11.6148C11.8462 11.5463 11.9489 11.4208 11.9946 11.3637L12.0174 11.3295C12.2342 11.0099 12.2798 10.736 12.2798 10.4051V10.2339Z" fill="#4C4C4C"/>
<path d="M19.7308 17.5149H20.5639V10.2339H19.3086V17.0927C19.3086 17.3209 19.4912 17.5149 19.7308 17.5149Z" fill="#4C4C4C"/>
<path d="M15.44 11.855C13.8651 11.855 12.5869 13.1331 12.5869 14.708C12.5869 16.2829 13.8651 17.5611 15.44 17.5611C17.0149 17.5611 18.293 16.2829 18.293 14.708C18.3045 13.1331 17.0263 11.855 15.44 11.855ZM15.44 16.3856C14.5156 16.3856 13.7624 15.6324 13.7624 14.708C13.7624 13.7837 14.5156 13.0304 15.44 13.0304C16.3643 13.0304 17.1176 13.7837 17.1176 14.708C17.1176 15.6324 16.3758 16.3856 15.44 16.3856Z" fill="#4C4C4C"/>
<path d="M24.2724 11.8091C22.686 11.8091 21.3965 13.0987 21.3965 14.685C21.3965 16.2713 22.686 17.5609 24.2724 17.5609C25.8586 17.5609 27.1482 16.2713 27.1482 14.685C27.1482 13.0987 25.8586 11.8091 24.2724 11.8091ZM24.2724 16.3854C23.3365 16.3854 22.5833 15.6322 22.5833 14.6964C22.5833 13.7606 23.3365 13.0074 24.2724 13.0074C25.2082 13.0074 25.9614 13.7606 25.9614 14.6964C25.9614 15.6322 25.2082 16.3854 24.2724 16.3854Z" fill="#4C4C4C"/>
<path d="M17.633 17.5149H18.3063V12.0142H17.1309V17.0242C17.1309 17.2867 17.3591 17.5149 17.633 17.5149Z" fill="#4C4C4C"/>
</svg>
