<svg width="107" height="96" viewBox="0 0 107 96" fill="none" xmlns="http://www.w3.org/2000/svg">
<path d="M12.7219 8.04079V55.2018C12.7219 77.6373 53.5088 96 53.5088 96C53.5088 96 94.2957 77.646 94.2957 55.2018V8.04079L53.5263 0L12.7219 8.04079Z" fill="#4F2C1E"/>
<path d="M53.5261 92.4079C49.6729 90.4326 42.6129 86.5608 35.6666 81.4392C23.5826 72.5244 16.9246 63.5572 16.9246 56.1806V10.8813L53.5261 3.59213L90.0753 10.9162V56.1719C90.0753 70.8463 65.5665 86.2899 53.5261 92.3991V92.4079Z" fill="#C8B2A3"/>
<path d="M22.5078 15.933V53.5237C22.5078 71.4057 53.4999 86.0452 53.4999 86.0452C53.4999 86.0452 84.492 71.4144 84.492 53.5237V15.933L53.5174 9.51785L22.5078 15.933Z" fill="#4F2C1E"/>
<path d="M107 31.8048H0V63.7582H107V31.8048Z" fill="#4F2C1E"/>
<path d="M103.828 34.6366H3.17163V60.9264H103.828V34.6366Z" fill="#C8B2A3"/>
<path d="M101.81 36.5594H5.19019V59.0124H101.81V36.5594Z" fill="#4F2C1E"/>
<path d="M9.15693 55.4377V40.1253H15.1771C15.9984 40.1253 16.7062 40.4574 17.2916 41.1304C17.877 41.8034 18.1741 42.5987 18.1741 43.5251V44.3904C18.1741 45.3867 17.9207 46.1646 17.4227 46.7327C16.9246 47.3008 16.1732 47.6504 15.1684 47.7815C16.1732 47.7815 16.9159 48.1224 17.4227 48.8041C17.9207 49.4858 18.1741 50.2811 18.1741 51.1726V52.0379C18.1741 52.9556 17.877 53.7509 17.2829 54.4239C16.6887 55.0969 15.981 55.429 15.1684 55.429H9.14819L9.15693 55.4377ZM12.1539 46.9425H13.6655C14.0762 46.9425 14.4257 46.7764 14.7227 46.4355C15.0198 46.0947 15.1684 45.7014 15.1684 45.2382V43.5339C15.1684 43.0707 15.0198 42.6774 14.7227 42.3452C14.4257 42.0131 14.0674 41.8471 13.6655 41.8471H12.1539V46.9512V46.9425ZM12.1539 53.7334H13.6655C14.0762 53.7334 14.4257 53.5674 14.7227 53.2353C15.0198 52.9031 15.1684 52.5011 15.1684 52.0466V50.3423C15.1684 49.2061 14.6616 48.638 13.6568 48.638H12.1452V53.7422L12.1539 53.7334Z" fill="#C8B2A3"/>
<path d="M21.1711 55.4377V40.1253H28.6854V41.8296H24.1769V46.9337H27.1913V48.6205H24.1769V53.7247H28.6854V55.429H21.1711V55.4377Z" fill="#C8B2A3"/>
<path d="M40.7256 52.0466C40.5946 54.3103 39.5898 55.4465 37.7199 55.4465H34.7055C33.8841 55.4465 33.1764 55.1144 32.591 54.4414C32.0056 53.7771 31.7085 52.9731 31.7085 52.0466V43.5339C31.7085 42.6162 31.9968 41.8208 32.5823 41.1479C33.1589 40.4749 33.8754 40.134 34.7142 40.134H37.7287C39.616 40.134 40.6208 41.2702 40.7344 43.5339H39.2228C39.1092 42.4064 38.6112 41.8471 37.7287 41.8471H36.2171C35.8064 41.8471 35.4482 42.0131 35.1511 42.3452C34.854 42.6774 34.7055 43.0707 34.7055 43.5339V52.0466C34.7055 52.5011 34.854 52.9031 35.1424 53.2353C35.4394 53.5674 35.7889 53.7334 36.2083 53.7334H37.7199C38.6024 53.7334 39.1005 53.1741 39.214 52.0466H40.7256Z" fill="#C8B2A3"/>
<path d="M43.7227 55.4377V40.1253H46.7284V46.3744L51.5952 40.1253H54.2601L48.24 47.7815L54.2601 55.4377H51.2457L46.7371 49.4858V55.4377H43.7314H43.7227Z" fill="#C8B2A3"/>
<path d="M57.2571 55.4377V40.1253H57.9386L64.3694 47.3795L70.7915 40.1253H72.3031V55.4377H69.2887V46.0772L64.0112 52.0466L58.7774 46.0772V55.4377H57.2658H57.2571Z" fill="#C8B2A3"/>
<path d="M75.3002 55.4377V43.5251C75.3002 42.5987 75.5973 41.7946 76.1827 41.1304C76.7681 40.4661 77.4758 40.1253 78.2972 40.1253H81.3116C82.1329 40.1253 82.8407 40.4574 83.4261 41.1304C84.0115 41.8034 84.3086 42.5987 84.3086 43.5251V55.4377H81.3029V48.6293H78.2884V55.4377H75.2827H75.3002ZM78.2972 46.9425H81.3116V43.5251C81.3116 43.0619 81.1631 42.6686 80.866 42.3365C80.5689 42.0044 80.2107 41.8383 79.8088 41.8383C79.4068 41.8383 79.0399 42.0044 78.7428 42.3365C78.4457 42.6686 78.2972 43.0619 78.2972 43.5251V46.9425Z" fill="#C8B2A3"/>
<path d="M87.323 55.4377V40.1253H88.0045L96.3401 48.6293V40.1253H97.8517V55.4377H97.1615L88.8346 46.9337V55.4377H87.323Z" fill="#C8B2A3"/>
<path d="M76.5234 29.3663H30.4678V30.118H76.5234V29.3663Z" fill="#C8B2A3"/>
<path d="M76.5234 65.5674H30.4678V66.319H76.5234V65.5674Z" fill="#C8B2A3"/>
<path d="M46.9643 70.9337C46.2915 72.5506 45.1469 74.6395 44.0285 74.6395C42.91 74.6395 42.6829 73.3634 43.312 71.8776C43.8188 70.6715 44.4479 70.1471 44.8498 70.1471C45.5138 70.1471 45.9158 71.0823 45.2692 72.2884C44.876 73.0138 44.4304 73.3285 44.0285 73.1449C43.9323 73.1012 43.8537 73.0313 43.7838 72.9439C43.7052 73.4858 43.8624 73.8267 44.2556 73.8267C45.042 73.8267 46.0206 72.2535 46.8944 70.4268C46.9643 70.2782 47.008 70.8376 46.973 70.925L46.9643 70.9337ZM43.976 72.2447C43.976 72.2447 43.9498 72.3059 43.9411 72.3409C44.1683 72.5943 44.4216 72.3409 44.6313 72.0787C44.9197 71.7116 45.1643 70.925 44.9372 70.925C44.71 70.925 44.2731 71.5106 43.976 72.2535V72.2447Z" fill="#C8B2A3"/>
<path d="M48.9215 70.8988C48.5108 71.8165 47.6196 72.8041 47.0254 73.2323C46.7196 74.421 46.2478 74.6395 45.7847 74.6395C45.5051 74.6395 45.1032 74.5084 45.1731 73.9141C45.2255 73.4508 45.7672 73.2935 46.3439 73.0575C46.3876 72.8565 46.4225 72.6118 46.4662 72.2884C46.5973 71.2221 46.641 69.9024 47.4361 69.8237C48.2312 69.7451 47.3924 70.8026 47.3924 70.8026C47.3924 70.8026 47.2788 71.6504 47.2089 72.1573C47.1914 72.3234 47.1652 72.4894 47.139 72.638C47.6196 72.3234 48.205 71.7116 48.869 70.4268C48.9739 70.2957 48.9477 70.8026 48.9127 70.89L48.9215 70.8988ZM45.9857 74.0189C46.0381 73.9141 46.0992 73.8179 46.1604 73.6781C45.8983 73.8004 45.6973 73.9053 45.6798 74.0539C45.6449 74.3074 45.8721 74.2462 45.9857 74.0189Z" fill="#C8B2A3"/>
<path d="M47.637 74.6395C47.3399 74.6395 47.2001 74.3161 47.4623 73.6082C47.5496 73.3547 48.0389 72 48.5195 70.6803H47.9953C48.0739 70.4618 48.1176 70.3394 48.1176 70.3394H48.6418C49.0962 69.0896 49.236 68.7225 49.236 68.7225H49.9612C49.9612 68.7225 49.7865 69.1595 49.367 70.3394H49.9088C49.9088 70.3394 49.8651 70.4618 49.7865 70.6803H49.2447C48.9476 71.5193 48.668 72.2797 48.5981 72.4982C48.2312 73.4771 48.3098 73.8354 48.4846 73.9228C48.0914 74.4734 47.8467 74.6395 47.6545 74.6395H47.637Z" fill="#C8B2A3"/>
<path d="M49.8303 74.6832C49.5594 74.6832 49.4371 74.3074 49.542 73.8441C49.6468 73.3809 49.9526 73.0051 50.2322 73.0051C50.5118 73.0051 50.6254 73.3809 50.5206 73.8441C50.407 74.3074 50.1012 74.6832 49.8303 74.6832Z" fill="#C8B2A3"/>
<path d="M53.2902 74.1326H53.8057L53.6222 74.6307H53.1067H52.3902H51.8223L52.0058 74.1326H52.5737L53.5436 71.4232C53.2115 71.7378 52.9669 71.8514 52.9669 71.8514L52.7135 71.3532C52.7135 71.3532 53.5698 70.9162 54.0067 70.1384H54.7231L53.2814 74.1238L53.2902 74.1326Z" fill="#C8B2A3"/>
<path d="M57.5804 71.7465C57.4056 73.5295 56.2348 75.732 54.9941 75.732C53.7533 75.732 54.3038 74.2374 54.3038 74.2374H54.9941C54.9941 74.2374 54.5222 75.3212 55.029 75.3212C55.4572 75.3212 56.0338 74.4035 56.4882 73.2848C56.4882 73.2848 56.1212 73.8878 55.6581 73.8878C55.1339 73.8878 54.7232 73.4071 54.8106 72.5768C54.9242 71.3882 55.6931 70.1471 56.6367 70.1471C57.1522 70.1471 57.7027 70.4792 57.5804 71.7553V71.7465ZM56.6455 70.8026C56.3309 70.8026 55.9115 71.362 55.7105 72.0437C55.5096 72.7254 55.597 73.2848 55.9115 73.2848C56.2261 73.2848 56.6455 72.7254 56.8464 72.0437C57.0474 71.362 56.96 70.8026 56.6455 70.8026Z" fill="#C8B2A3"/>
<path d="M61.1453 70.0422C61.0055 70.5404 60.6647 70.9599 60.289 71.1784C60.6035 71.4931 60.7084 72.0961 60.5162 72.7866C60.2366 73.8092 59.4065 74.6307 58.6725 74.6307C57.9386 74.6307 57.5716 73.8092 57.8599 72.7866C58.0784 71.9913 58.6288 71.3095 59.2055 71.0561C59.0308 70.8201 58.9783 70.453 59.0919 70.0422C59.2842 69.3343 59.9045 68.7575 60.4725 68.7575C61.0404 68.7575 61.3375 69.3343 61.1453 70.0422ZM59.5026 71.6504C59.2143 71.6504 58.8298 72.1573 58.6638 72.7953C58.489 73.4246 58.5852 73.9403 58.8648 73.9403C59.1444 73.9403 59.5376 73.4246 59.7036 72.7953C59.8783 72.1573 59.7822 71.6504 59.5026 71.6504ZM60.3239 69.2906C60.1142 69.2906 59.8434 69.6315 59.7298 70.0422C59.6162 70.453 59.6948 70.7939 59.9045 70.7939C60.1142 70.7939 60.3851 70.453 60.4987 70.0422C60.6123 69.6315 60.5336 69.2906 60.3239 69.2906Z" fill="#C8B2A3"/>
<path d="M64.1424 71.7465C63.9676 73.5295 62.7968 75.732 61.5561 75.732C60.3153 75.732 60.8658 74.2374 60.8658 74.2374H61.5561C61.5561 74.2374 61.0843 75.3212 61.591 75.3212C62.0192 75.3212 62.5959 74.4035 63.0502 73.2848C63.0502 73.2848 62.6832 73.8878 62.2201 73.8878C61.6959 73.8878 61.2852 73.4071 61.3726 72.5768C61.4862 71.3882 62.2551 70.1471 63.1987 70.1471C63.7143 70.1471 64.2647 70.4792 64.1424 71.7553V71.7465ZM63.2075 70.8026C62.8929 70.8026 62.4735 71.362 62.2726 72.0437C62.0716 72.7254 62.159 73.2848 62.4735 73.2848C62.7881 73.2848 63.2075 72.7254 63.4084 72.0437C63.6094 71.362 63.522 70.8026 63.2075 70.8026Z" fill="#C8B2A3"/>
<path d="M43.312 18.118C42.6567 18.118 41.3024 18.9395 40.1403 20.6788C38.9782 22.4181 38.952 23.8514 40.3762 23.8514C41.949 23.8514 43.6179 22.287 44.2557 21.4654C44.4829 21.177 44.7887 21.85 44.6139 22.0859C43.7839 23.2833 41.7655 25.0925 39.8345 25.0925C37.9035 25.0925 36.4705 23.1522 38.7248 20.2331C40.4549 17.9956 42.4645 17.4188 43.4256 17.4188C45.0683 17.4188 44.5528 19.6213 43.1023 20.3904C42.4208 20.7487 42.1412 20.1282 42.1412 20.1282C43.2596 19.429 43.9586 18.1092 43.3033 18.1092L43.312 18.118Z" fill="#C8B2A3"/>
<path d="M51.3157 20.8711C51.0798 21.0983 48.3012 23.6766 47.6197 24.2709C46.8857 24.909 46.4314 25.0925 46.0732 25.0925C45.514 25.0925 45.2606 24.7167 45.7411 23.9126C45.8023 23.8077 45.9159 23.6067 46.0732 23.3532C45.1732 24.2709 44.1247 25.0925 43.5742 25.0925C42.7354 25.0925 42.5519 24.2622 43.0325 23.4406C43.382 22.8551 45.0771 19.9272 45.0771 19.9272H46.4139C46.4139 19.9272 45.2081 21.9898 44.8499 22.6191C44.7276 22.8288 44.4742 23.3183 44.9635 23.3183C45.4528 23.3183 46.8595 21.9286 47.3663 21.1245C47.7508 20.4516 48.0566 19.9272 48.0566 19.9272H49.3934C49.3934 19.9272 48.1876 21.9898 47.8294 22.6191C47.7071 22.8288 47.4712 23.2571 47.5411 23.3183C47.611 23.3882 47.8119 23.2134 48.0304 23.0473C48.3537 22.8026 50.905 20.5564 51.2196 20.2505C51.3768 20.0932 51.3943 20.7749 51.3157 20.8536V20.8711Z" fill="#C8B2A3"/>
<path d="M54.9942 20.7924C54.234 21.8412 52.5739 22.9862 51.4817 23.4756C50.905 24.839 50.0487 25.0925 49.1924 25.0925C48.6682 25.0925 47.9255 24.9352 48.0653 24.2622C48.1701 23.7291 49.1575 23.5455 50.2409 23.2833C50.3283 23.0473 50.3895 22.7677 50.4681 22.4006C50.704 21.177 50.7914 19.665 52.2681 19.5688C53.7447 19.4727 52.1894 20.6963 52.1894 20.6963C52.1894 20.6963 51.9797 21.6664 51.8487 22.252C51.8137 22.4443 51.7613 22.6366 51.7176 22.8026C52.6001 22.4355 53.701 21.7363 54.933 20.2593C55.134 20.102 55.0728 20.6875 55.0116 20.7924H54.9942ZM49.5682 24.3933C49.673 24.2709 49.7779 24.1573 49.8914 24C49.4021 24.1398 49.0352 24.2622 49.0002 24.4283C48.9391 24.7167 49.3585 24.6555 49.5769 24.3933H49.5682Z" fill="#C8B2A3"/>
<path d="M58.2707 20.8711C58.0347 21.0983 54.8368 23.6766 54.164 24.2709C53.4301 24.909 52.9757 25.0925 52.6175 25.0925C52.0583 25.0925 51.8049 24.7167 52.2854 23.9126C52.4515 23.6242 53.3602 22.0597 54.2426 20.539H53.264C53.4038 20.2942 53.4912 20.1457 53.4912 20.1457H54.4611C55.2999 18.7036 55.5533 18.284 55.5533 18.284H56.8901C56.8901 18.284 56.5668 18.791 55.7979 20.1457H56.8028C56.8028 20.1457 56.7154 20.2855 56.5756 20.539H55.5708C55.0116 21.5004 54.5048 22.3744 54.365 22.6278C54.2426 22.8376 54.0067 23.2658 54.0766 23.327C54.1465 23.3969 54.3475 23.2221 54.5659 23.0561C54.8892 22.8114 57.8513 20.5652 58.1658 20.2593C58.3231 20.102 58.3406 20.7837 58.2619 20.8623L58.2707 20.8711Z" fill="#C8B2A3"/>
<path d="M63.1549 20.8711C63.0763 20.9497 61.2764 22.9862 59.9657 22.7939C59.8783 22.9337 59.791 23.0736 59.6861 23.2221C58.7687 24.4894 57.7726 25.1012 56.8464 25.1012C55.7018 25.1012 55.0989 23.9039 56.2173 22.1733C57.327 20.4428 58.4978 19.9359 59.2405 19.9359C59.389 19.9359 59.4415 20.102 59.4589 20.2855C59.6512 20.0932 59.8783 19.9709 60.0968 19.9709C60.5599 19.9709 60.6735 20.6264 60.5774 21.1595C60.5424 21.378 60.49 21.6402 60.3764 21.9461C61.1628 22.0772 62.552 20.74 62.7443 20.504C62.9627 20.2505 63.2336 20.7837 63.1462 20.8711H63.1549ZM59.1531 22.2433C58.8735 21.8412 58.8823 21.3518 59.0395 20.9323C58.6114 21.1682 58.0522 21.7014 57.6503 22.3394C57.1085 23.1784 57.0212 23.8689 57.458 23.8689C58.0347 23.8689 58.7163 22.9949 59.1531 22.2433Z" fill="#C8B2A3"/>
<path d="M67.384 25.1012C66.8248 25.1012 66.5714 24.7254 67.0519 23.9213C67.4014 23.3358 67.6548 22.89 68.0306 22.2345C68.3888 21.6315 68.4849 21.2906 68.1966 21.2906C67.7422 21.2906 65.7238 23.0124 64.5792 24.7691C64.4569 24.9701 64.387 25.1012 64.387 25.1012H63.0589C63.0589 25.1012 64.2996 22.9425 64.7103 22.217C65.0598 21.614 65.1646 21.2819 64.8763 21.2819C64.387 21.2819 62.1327 23.2309 61.0405 25.0925H59.7124L62.7094 19.9359H64.0375L62.6657 22.3132C64.3608 20.268 65.584 19.9272 65.9772 19.9272C66.6325 19.9272 67.183 20.3205 66.5102 21.3955C66.3355 21.6926 66.2131 21.9024 65.986 22.3044C67.681 20.2593 68.9043 19.9184 69.3062 19.9184C69.9528 19.9184 70.4771 20.2593 69.8392 21.3867C69.6295 21.7538 69.4897 21.9898 69.1315 22.6191C68.45 23.7465 68.5373 24.2884 68.9218 24.2622C68.1966 24.9002 67.7247 25.0838 67.3752 25.0838L67.384 25.1012Z" fill="#C8B2A3"/>
</svg>
