<?xml version="1.0" encoding="UTF-8"?>
<svg id="Layer_1" xmlns="http://www.w3.org/2000/svg" version="1.1" viewBox="0 0 770.1 770.1">
  <!-- Generator: Adobe Illustrator 29.7.1, SVG Export Plug-In . SVG Version: 2.1.1 Build 8)  -->
  <defs>
    <style>
      .st0 {
        fill: #c8b2a3;
      }

      .st1 {
        fill: #4f2c1e;
      }
    </style>
  </defs>
  <g>
    <path class="st0" d="M38.9,483.5v-197.7c229.4,35.7,462.9,35.7,692.4,0,0,65.9,0,131.8,0,197.7-229.4,35.7-462.9,35.7-692.4,0Z"/>
    <path class="st1" d="M724.9,293.1v185c-225.3,34.4-454.4,34.4-679.7,0v-185c225.3,34.4,454.4,34.4,679.7,0M737.6,278.4c-233.6,37-471.5,37-705,0v210.5c233.6,37,471.5,37,705,0v-210.5h0Z"/>
  </g>
  <path class="st1" d="M116.4,121.9v310.7c0,147.8,268.7,268.7,268.7,268.7,0,0,268.7-120.9,268.7-268.7V121.9l-268.6-53L116.4,121.9Z"/>
  <path class="st0" d="M385.2,677.6c-25.4-13-71.9-38.5-117.7-72.2-79.6-58.7-123.5-117.8-123.5-166.4V140.6l241.2-48,240.8,48.2v298.1c0,96.7-161.5,198.4-240.8,238.6Z"/>
  <path class="st1" d="M180.9,173.9v247.6c0,117.8,204.2,214.2,204.2,214.2,0,0,204.2-96.4,204.2-214.2v-247.6l-204.1-42.2-204.3,42.2Z"/>
  <g>
    <path class="st1" d="M737.6,488.9c-233.6-37-471.5-37-705,0v-210.5c233.6-37,471.5-37,705,0,0,70.2,0,140.3,0,210.5Z"/>
    <path class="st0" d="M716.8,467c-219.9-32.7-443.5-32.7-663.4,0v-173.2c219.9-32.7,443.5-32.7,663.4,0v173.2Z"/>
    <path class="st1" d="M703.6,452.5c-211.3-30.2-425.7-30.2-637,0v-147.9c211.3-30.2,425.7-30.2,637,0v147.9Z"/>
    <g>
      <path class="st0" d="M92.6,425.4v-100.9c13.2-1.7,26.4-3.3,39.6-4.8,5.4-.6,10.1,1.1,13.9,5.1,3.9,4,5.8,9.1,5.8,15.1v5.7c0,6.5-1.6,11.9-4.9,16-3.3,4.1-8.2,6.9-14.8,8.6,6.6-.7,11.5,1,14.8,5.1,3.3,4.2,4.9,9.2,4.9,15.1v5.7c0,6.1-2,11.5-5.9,16.4-3.9,4.8-8.5,7.6-13.9,8.2-13.2,1.5-26.4,3.1-39.6,4.8ZM112.3,366.9c3.3-.4,6.6-.8,9.9-1.2,2.7-.3,5-1.7,7-4.1,2-2.4,2.9-5.2,2.9-8.2v-11.2c0-3-1-5.6-2.9-7.5-2-2-4.3-2.8-7-2.5-3.3.4-6.6.8-9.9,1.2v33.6ZM112.3,411.7c3.3-.4,6.6-.8,9.9-1.2,2.7-.3,5-1.7,7-4.1,2-2.4,2.9-5.1,2.9-8.2v-11.2c0-7.5-3.3-10.9-9.9-10.1-3.3.4-6.6.8-9.9,1.2v33.6Z"/>
      <path class="st0" d="M171.7,416.5v-100.9c16.5-1.6,33-3,49.5-4.2v11.2c-9.9.7-19.8,1.5-29.7,2.4v33.6c6.6-.6,13.3-1.1,19.9-1.6v11.1c-6.6.5-13.3,1.1-19.9,1.6v33.6c9.9-.9,19.8-1.6,29.7-2.4v11.2c-16.5,1.2-33,2.6-49.5,4.2Z"/>
      <path class="st0" d="M300.6,385.5c-.9,15-7.5,22.6-19.8,23.2-6.6.3-13.3.6-19.9,1-5.4.3-10.1-1.6-14-5.8-3.9-4.2-5.8-9.3-5.8-15.4,0-18.7,0-37.4,0-56.1,0-6,1.9-11.4,5.7-16.1,3.8-4.7,8.5-7.2,14.1-7.5,6.6-.4,13.3-.7,19.9-1,12.5-.6,19.1,6.7,19.8,21.5-3.3.1-6.6.3-10,.4-.8-7.4-4.1-11-9.9-10.7-3.3.2-6.6.3-10,.5-2.7.1-5.1,1.4-7,3.7-2,2.3-2.9,5-2.9,8v56.1c0,3,1,5.6,2.9,7.7,1.9,2.1,4.3,3.1,7,2.9,3.3-.2,6.6-.3,10-.5,5.8-.3,9.1-4.1,9.9-11.6,3.3-.1,6.6-.3,10-.4Z"/>
      <path class="st0" d="M320.5,407.3v-100.9c6.6-.2,13.2-.4,19.8-.5v41.2c10.7-13.9,21.4-27.8,32.1-41.6,5.9,0,11.7,0,17.6,0-13.3,16.8-26.5,33.7-39.8,50.7,13.3,16.6,26.5,33.3,39.8,50.2-6.6,0-13.3,0-19.9,0-9.9-13-19.9-25.9-29.8-38.8v39.2c-6.6.1-13.2.3-19.8.5Z"/>
      <path class="st0" d="M409.9,406.5v-100.9c1.5,0,3,0,4.5,0,14.2,16.1,28.3,32.4,42.5,48.8,14.1-15.5,28.3-30.8,42.4-46,3.3.2,6.6.3,10,.5v100.9c-6.6-.4-13.3-.7-19.9-1v-61.7c-11.6,12.6-23.2,25.2-34.9,38-11.5-13.5-23.1-26.9-34.6-40.1v61.7c-3.3,0-6.6,0-10-.1Z"/>
      <path class="st0" d="M529.1,410.9v-78.5c0-6.1,1.9-11.3,5.8-15.4,3.9-4.1,8.5-6,14-5.6,6.6.5,13.3,1,19.9,1.5,5.4.4,10.1,3,14,7.8,3.9,4.8,5.8,10.2,5.8,16.3v78.5c-6.6-.6-13.2-1.2-19.8-1.7,0-15,0-29.9,0-44.9-6.6-.5-13.3-1.1-19.9-1.5v44.9c-6.6-.5-13.2-.9-19.8-1.4ZM548.9,356.3c6.6.5,13.3,1,19.9,1.5,0-7.5,0-15,0-22.5,0-3-1-5.7-3-8.1-2-2.3-4.3-3.6-7-3.8-2.7-.2-5.1.7-7,2.8-2,2-2.9,4.6-2.9,7.6v22.5Z"/>
      <path class="st0" d="M608.3,417.4v-100.9c1.5.1,3,.3,4.5.5,18.3,20.5,36.6,41.3,54.8,62.2v-56c3.3.4,6.6.8,9.9,1.3v100.9c-1.5-.2-3-.4-4.5-.6-18.2-21-36.5-41.8-54.8-62.4v56c-3.3-.3-6.6-.7-9.9-1Z"/>
    </g>
  </g>
</svg>